<svg xmlns="http://www.w3.org/2000/svg" data-name="Layer 1" viewBox="0 0 512 512"><path fill="#ff8e66" d="M392.61,253.46c-1.2,20.21-14.75,39.93994-33.87,47.68994C331.92,312.02,296.54,298.33,280.19,266.02a146.56265,146.56265,0,0,0-12.7-36.88c-7.53-14.99011-18.88-37.56-37.59-48.9801h-.01A48.426,48.426,0,0,0,216.97,174.59c-14.8-3.93006-24.35,1.37-34.33-7.47-6.11-5.42005-11.35-15.23-8.39-22,3.85-8.79,17.99-4.43006,23.76-13.84,6.15-10.01-5.47-22.05005.67-29.92,4.27-5.46009,15.36005-6.67,23.16-2.92,14.96,7.18006,9.13,28.4,24.73,49.96,8.35,11.54,18.33,16.62012,31.83,24.04,36.5,20.06006,52.7,6.53,79.11,23.21C361.45,198.14,394.61,219.77,392.61,253.46Z"/><path fill="#ff7c4e" d="M183.01 146.28a13.15207 13.15207 0 0 0 1.83759-7.70642c-4.52747 1.13708-8.749 2.32593-10.5976 6.54639a12.234 12.234 0 0 0-.50305 7.42224C177.36322 151.46558 180.80054 149.8833 183.01 146.28zM357.51 195.6499C331.1 178.97 314.9 192.5 278.4 172.43994c-13.5-7.41992-23.48-12.5-31.83-24.04-15.6-21.55993-9.77-42.7799-24.73-49.96-7.8-3.75-18.89-2.54-23.16 2.92-2.22833 2.8562-2.114 6.26306-1.3623 9.92138a23.25155 23.25155 0 0 1 9.52234 2.15857c14.96 7.18006 9.13 28.4 24.73 49.96 8.35 11.54 18.33 16.62012 31.83 24.04 36.5 20.06006 52.7 6.53 79.11 23.21 3.94 2.49011 37.1 24.12012 35.1 57.81006a55.73228 55.73228 0 0 1-9.73774 27.81445C382.0614 286.74683 391.61169 270.273 392.61 253.46 394.61 219.77 361.45 198.14 357.51 195.6499z"/><path fill="#f7f7f7" d="M243.86,168.29a27.47563,27.47563,0,0,1-13.96,11.86987h-.01A48.426,48.426,0,0,0,216.97,174.59c-14.8-3.93006-24.35,1.37-34.33-7.47-6.11-5.42005-11.35-15.23-8.39-22,3.85-8.79,17.99-4.43006,23.76-13.84,6.15-10.01-5.47-22.05005.67-29.92,4.27-5.46009,15.36005-6.67,23.16-2.92,14.96,7.18006,9.13,28.4,24.73,49.96A27.52778,27.52778,0,0,1,243.86,168.29Z"/><path fill="#f7f7f7" d="M243.86,168.29a26.60677,26.60677,0,0,1-3.44,4.72,27.8363,27.8363,0,0,1-10.52,7.1499h-.01A48.426,48.426,0,0,0,216.97,174.59c-14.8-3.93006-24.35,1.37-34.33-7.47-6.11-5.42005-11.35-15.23-8.39-22,3.85-8.79,17.99-4.43006,23.76-13.84,3.91339-6.37708.62964-13.57886-.68732-20H197.32c-.07-.36011-.14-.71-.2-1.06006-.01-.01-.01-.02-.01-.04a18.64857,18.64857,0,0,1-.28-3.02,9.07376,9.07376,0,0,1,1.85-5.79992c4.27-5.46009,15.36005-6.67,23.16-2.92,14.96,7.18006,9.13,28.4,24.73,49.96A27.52778,27.52778,0,0,1,243.86,168.29Z"/><path fill="#f2f2f2" d="M243.86,168.29a26.60677,26.60677,0,0,1-3.44,4.72,54.46516,54.46516,0,0,1-8.85-9.61011c-15.6-21.55993-9.77-42.7799-24.73-49.96a23.22215,23.22215,0,0,0-9.52-2.15991c-.07-.36011-.14-.71-.2-1.06006-.01-.01-.01-.02-.01-.04a18.64857,18.64857,0,0,1-.28-3.02,9.07376,9.07376,0,0,1,1.85-5.79992c4.27-5.46009,15.36005-6.67,23.16-2.92,14.96,7.18006,9.13,28.4,24.73,49.96A27.52778,27.52778,0,0,1,243.86,168.29Z"/><path fill="#ffa585" d="M463.02811,362.22809c-2.79692,57.70923-107.7614,105.0459-194.8509,103.49463-65.02365-1.15821-165.53277-30.24329-175.61779-93.35279C84.42,321.43573,144.61536,272.985,157.06607,262.90411c11.93338-9.66211,43.2291-34.33008,90.28435-39.55041C304.8833,216.971,347.79119,243.89728,373.614,260.102,405.52488,280.12726,465.19247,317.57074,463.02811,362.22809Z"/><path fill="#ff9d7a" d="M373.614,260.10205C347.7912,243.89722,304.8833,216.971,247.3504,223.35376c-1.78277.19775-3.53515.43213-5.27252.684,37.859,5.52881,67.05975,23.84216,86.53607,36.06433,31.911,20.02515,91.57855,57.46875,89.41419,102.126-2.5149,51.88952-87.62879,95.38489-168.07959,102.50378,6.29919.55567,12.4079.88721,18.2287.99085,87.08947,1.55127,192.05395-45.7854,194.85089-103.49463C465.1925,317.5708,405.5249,280.1272,373.614,260.10205Z"/><path fill="#ff8e66" d="M236.6,305.3999c-.56589,6.34729-3.087,24.96094-17.98415,38.3667-19.14265,17.2262-50.91309,18.82739-77.8759,2.54346a114.8959,114.8959,0,0,1-17.703-20.67542C112.52948,309.89026,114.96269,304.916,105.63,288.33c-5.24539-9.32215-17.36944-28.5022-38.59-38.52991a48.78086,48.78086,0,0,0-13.47-4.15015C38.44,243.32007,29.51,249.61,18.64,241.87c-6.65-4.73-12.91-13.93006-10.68-20.98,2.89-9.14,17.41-6.31994,22.15-16.29C35.16,194,22.32,183.26,27.6,174.79c3.66-5.89014,14.56-8.27,22.71-5.37012,15.64,5.55,12.1,27.26,29.91,47.04,9.53,10.59009,19.98,14.58008,34.21,20.53,27.1,11.33008,55.99005,3.29,82.63,15.91992C217.01,262.36,235.51,282.3999,236.6,305.3999Z"/><path fill="#ff7c4e" d="M197.06,252.90991C170.42,240.28,141.53,248.32007,114.43,236.99c-14.23-5.95-24.68-9.93994-34.21-20.53-17.81-19.78-14.27-41.49-29.91-47.04-8.05561-2.86633-18.78565-.56811-22.56757,5.17334,7.63947,9.04248,8.25049,26.06592,22.4776,41.8667C59.75,227.05005,70.2,231.04,84.43,236.99c27.1,11.33008,55.99005,3.29,82.63,15.91992,19.95,9.45008,38.45,29.49,39.54,52.49-.56586,6.34729-3.087,24.96094-17.98413,38.3667a53.82757,53.82757,0,0,1-23.824,12.20288c20.14746,4.40137,40.18915.0669,53.824-12.20288C233.513,330.36084,236.03418,311.74719,236.6,305.3999,235.51,282.3999,217.01,262.36,197.06,252.90991Z"/><path fill="#f7f7f7" d="M79.63,236.53a27.33077,27.33077,0,0,1-12.59,13.27,48.78086,48.78086,0,0,0-13.47-4.15015C38.44,243.32007,29.51,249.61,18.64,241.87c-6.65-4.73-12.91-13.93006-10.68-20.98,2.89-9.14,17.41-6.31994,22.15-16.29C35.16,194,22.32,183.26,27.6,174.79c3.66-5.89014,14.56-8.27,22.71-5.37012,15.64,5.55,12.1,27.26,29.91,47.04A27.60362,27.60362,0,0,1,79.63,236.53Z"/><path fill="#f7f7f7" d="M80.16,235.21c-.16.43994-.34.88-.53,1.32007a27.33077,27.33077,0,0,1-12.59,13.27,48.78086,48.78086,0,0,0-13.47-4.15015C38.44,243.32007,29.51,249.61,18.64,241.87c-6.65-4.73-12.91-13.93006-10.68-20.98,2.89-9.14,17.41-6.31994,22.15-16.29C35.16,194,22.32,183.26,27.6,174.79A5.44464,5.44464,0,0,1,28,174.21c.09-.12.19-.24.28-.36s.19-.24.3-.36c.21-.23.43-.46.66-.67993a2.59337,2.59337,0,0,1,.35-.32007c.24-.21.5-.41992.76-.62.13-.1.25995-.19007.4-.29.14-.09.28-.19.42-.27991a4.54465,4.54465,0,0,1,.47-.29c.13-.08008.27-.16.4-.23A16.06475,16.06475,0,0,1,34,169.84c.32-.13.63-.25.96-.36.52-.18994,1.05-.35,1.59-.49.33-.09009.67-.16992,1.01-.24a.31933.31933,0,0,1,.14-.03c.16-.04.33-.07007.5-.1.39-.08.79-.14,1.18-.19007.17-.03.35-.04993.53-.06994a23.40533,23.40533,0,0,1,10.4,1.05993c15.64,5.55,12.1,27.26,29.91,47.04A27.65916,27.65916,0,0,1,80.16,235.21Z"/><path fill="#f2f2f2" d="M80.16,235.21c-12.1-5.06006-21.39-9.25-29.94-18.75-14.23-15.8-14.84-32.82-22.48-41.87.08-.13.17-.25.26-.38.09-.12.19-.24.28-.36s.19-.24.3-.36c.21-.23.43-.46.66-.67993a2.59337,2.59337,0,0,1,.35-.32007c.24-.21.5-.41992.76-.62.13-.1.25995-.19007.4-.29.14-.09.28-.19.42-.27991a4.54465,4.54465,0,0,1,.47-.29c.13-.08008.27-.16.4-.23A16.06475,16.06475,0,0,1,34,169.84c.32-.13.63-.25.96-.36.52-.18994,1.05-.35,1.59-.49.33-.09009.67-.16992,1.01-.24a.31933.31933,0,0,1,.14-.03c.16-.04.33-.07007.5-.1.39-.08.79-.14,1.18-.19007.17-.03.35-.04993.53-.06994a23.40533,23.40533,0,0,1,10.4,1.05993c15.64,5.55,12.1,27.26,29.91,47.04A27.65916,27.65916,0,0,1,80.16,235.21Z"/><path fill="#676e87" d="M455.43013,474.911H56.56987A30,30,0,0,1,29.4061,457.644L7.5,410.911h497l-21.9061,46.733A30,30,0,0,1,455.43013,474.911Z"/><path fill="#595f74" d="M459.5,410.91089,437.59387,457.644a30.00006,30.00006,0,0,1-27.16376,17.26685h45A30.00006,30.00006,0,0,0,482.59387,457.644L504.5,410.91089Z"/><path fill="#ff8e66" d="M375.79709,332.43231c10.96849,2.09131,24.35333,4.80005,32.8683,12.61133,19.41309,17.80871-8.55147,27.543-23.44245,31.26831-25.1333,6.28772-75.88264,4.09045-92.60162-33.182-14.24576-31.75879,7.067-64.88769,8.95537-67.72693a57.70133,57.70133,0,0,0,5.45449,22.80249c1.63733,3.47449,4.88115,10.98951,12.296,17.04761,11.14983,9.10974,26.18154,12.32947,40.05661,14.52234C363.317,330.397,369.24911,331.1839,375.79709,332.43231Z"/><path fill="#ff7c4e" d="M408.66541,345.0437c-8.515-7.81128-21.89985-10.52-32.86829-12.61133-6.548-1.24853-12.4801-2.0354-16.41333-2.657-13.87506-2.19287-28.90674-5.4126-40.05658-14.52222-7.41486-6.0581-10.65869-13.57324-12.296-17.0476a57.701,57.701,0,0,1-5.45447-22.80249,91.94166,91.94166,0,0,0-12.398,30.46386,57.01779,57.01779,0,0,0,2.85242,7.33863c1.63733,3.47436,4.88116,10.9895,12.296,17.0476,11.14984,9.10962,26.18152,12.32935,40.05658,14.52222,3.93323.62158,9.86536,1.40845,16.41333,2.657,10.96844,2.09131,24.35333,4.8,32.86829,12.61133,4.606,4.22522,6.54126,7.99512,6.6206,11.339C412.50238,366.12927,422.34283,357.5907,408.66541,345.0437Z"/><path fill="#272a33" d="M409.24646,193.74514a7.5016,7.5016,0,0,0,6.43408-11.34228c-3.66211-6.14112-5.22021-12.03223-4.63135-17.51123.417-3.87842,1.73975-6.394,3.57032-9.876a49.30639,49.30639,0,0,0,5.08642-12.80029c2.25537-9.90918.85791-20.72608-4.15234-32.15039a7.50012,7.50012,0,1,0-13.73731,6.02441c3.69239,8.41846,4.79053,16.08838,3.26368,22.79785a35.3125,35.3125,0,0,1-3.73731,9.148c-2.10205,3.99805-4.48486,8.52979-5.20752,15.25391-.94433,8.78418,1.29737,17.7998,6.6626,26.79638A7.49487,7.49487,0,0,0,409.24646,193.74514ZM333.9696,383.33743a114.16661,114.16661,0,0,0,27.14844,3.1748,109.98654,109.98654,0,0,0,25.92481-2.92578c20.84423-5.21289,32.70166-12.93262,35.24316-22.94238,1.24756-4.915.77686-12.57031-8.55078-21.127-10.30322-9.45215-25.46387-12.3418-36.53418-14.45215-4.959-.94629-9.51953-1.626-13.18359-2.17285-1.27539-.18946-2.438-.36329-3.46338-.5254-13.30713-2.10253-26.937-5.123-36.48194-12.92285-5.68408-4.64355-8.3623-10.37988-9.9624-13.80761l-.29443-.62891a49.82112,49.82112,0,0,1-4.74219-19.834,7.49974,7.49974,0,0,0-13.74121-3.92383c-2.63916,3.96777-25.3291,39.78125-9.5542,74.94922C294.10828,364.77005,310.77283,377.61184,333.9696,383.33743Zm-35.73779-82.76074q.334-1.11036.689-2.18067.62328,1.51466,1.32568,3.00586l.27148.5791c1.85889,3.98242,5.72706,12.26856,14.06348,19.0791,12.30615,10.05567,28.24316,13.69141,43.63037,16.123,1.06348.168,2.26953.34766,3.59326.54492,3.53077.52637,7.9253,1.18164,12.58643,2.07129h.001c9.30224,1.77344,22.042,4.20215,29.20312,10.77051,3.45557,3.16992,4.396,5.41992,4.15137,6.38281-.562,2.21387-6.37305,7.58789-24.34424,12.083-10.75,2.68848-28.4375,4.03223-45.83887-.26172-12.9375-3.19336-30.04883-10.7666-38.09961-28.71387C294.26355,328.46536,293.849,315.18215,298.23181,300.57669ZM130.45349,147.75686a7.50146,7.50146,0,0,0,6.43408-11.34277c-3.66211-6.13965-5.2207-12.03125-4.63183-17.51074.417-3.87891,1.73974-6.39454,3.57031-9.87647a49.29621,49.29621,0,0,0,5.08643-12.80029c2.25488-9.90918.85839-20.72608-4.15186-32.15039a7.50012,7.50012,0,1,0-13.7373,6.02441c3.69189,8.41846,4.79,16.08838,3.26318,22.79785a35.302,35.302,0,0,1-3.73731,9.14746c-2.102,3.99854-4.48486,8.53028-5.20752,15.25489-.94384,8.78564,1.29786,17.80127,6.66309,26.79687A7.49664,7.49664,0,0,0,130.45349,147.75686ZM459.07556,277.22317a7.50173,7.50173,0,0,0,6.43457-11.3418c-3.66211-6.1416-5.2207-12.0332-4.63183-17.51172.417-3.87939,1.73974-6.395,3.57031-9.87744a49.28761,49.28761,0,0,0,5.08642-12.7998c2.2544-9.91016.85743-20.727-4.15283-32.1499a7.49987,7.49987,0,0,0-13.73633,6.02539c3.69141,8.417,4.78955,16.08691,3.26319,22.79687a35.31488,35.31488,0,0,1-3.73682,9.147c-2.10254,3.99854-4.48535,8.53077-5.208,15.25538-.94433,8.78369,1.29737,17.79882,6.66211,26.79589A7.49568,7.49568,0,0,0,459.07556,277.22317ZM70.45349,88.16751a7.50147,7.50147,0,0,0,6.43408-11.34278c-3.66211-6.13965-5.22021-12.03125-4.63183-17.51074.417-3.87842,1.73974-6.394,3.57031-9.876a49.30336,49.30336,0,0,0,5.08643-12.80078c2.25488-9.90918.85791-20.72558-4.15186-32.1499a7.50012,7.50012,0,1,0-13.7373,6.02441c3.69189,8.41846,4.79,16.08838,3.26318,22.79786a35.31264,35.31264,0,0,1-3.73731,9.14795c-2.10205,3.998-4.48486,8.52978-5.20752,15.2539-.94384,8.78565,1.29786,17.80176,6.66309,26.79688A7.49666,7.49666,0,0,0,70.45349,88.16751Zm440.376,318.71972a7.50087,7.50087,0,0,0-6.32959-3.47656H453.179c10.73065-13.06665,16.67035-26.94934,17.34185-40.81738,1.94385-40.13184-39.14215-73.43555-72.6488-95.81714a59.66379,59.66379,0,0,0,2.22449-12.87232c2.18994-36.89013-31.75342-60.28027-38.582-64.5957-14.18555-8.959-26.1084-10.15869-37.63868-11.31836-11.91845-1.19922-24.24316-2.439-41.86377-12.12305l-2.12158-1.16406c-12.24023-6.70752-20.32666-11.13916-27.24463-20.6997l-.02331-.03357c-.01843-.02527-.03485-.05213-.05359-.077-6.38379-8.871-8.76386-17.92554-10.86206-25.91821-2.70508-10.3042-5.50195-20.959-16.61719-26.29395-12.33056-5.92871-26.66406-2.16992-32.32275,5.06592-5.29883,6.7915-3.24414,14.6582-1.74365,20.40234,1.27441,4.8794,1.95019,8.001.59277,10.21094-1.2334,2.01172-3.87744,2.75928-8.08887,3.8125-5.38183,1.34619-12.75342,3.18994-16.14941,10.94336-4.44483,10.166,1.80957,23.09668,10.28955,30.61865,8.12012,7.19287,16.45019,7.39795,23.7998,7.5791a55.54727,55.54727,0,0,1,13.58789,1.52784,41.14417,41.14417,0,0,1,10.92432,4.71826c.07373.04541.14893.08935.22412.13183,10.72315,6.62183,19.00305,17.78418,25.4588,28.72144-1.72137.137-3.43725.29224-5.139.48315a171.49134,171.49134,0,0,0-68.83558,23.34595,227.30011,227.30011,0,0,0-22.62487-2.35913c-13.25391-.93115-25.77246-1.81055-37.73829-6.812l-2.20263-.91846c-12.90283-5.37549-21.42676-8.92627-29.33154-17.70752C78.434,203.273,75.09216,194.48147,72.14392,186.72512c-3.78467-9.957-7.69873-20.25341-19.32373-24.37841-12.89355-4.5752-26.74707.68994-31.59326,8.48-4.55225,7.31738-1.6709,14.92285.4331,20.47656,1.78565,4.71338,2.78955,7.74365,1.68018,10.07666-1.01563,2.13574-3.56689,3.16211-7.64551,4.65918C10.48865,207.95022,3.35828,210.5679.809,218.62844c-3.34912,10.58789,4.24854,22.78223,13.4834,29.35547,8.84228,6.29492,17.14892,5.61133,24.477,5.00879a55.51648,55.51648,0,0,1,13.65918.07031,41.64,41.64,0,0,1,10.93225,3.293,7.49462,7.49462,0,0,0,.87195.41565c14.65826,7.03858,25.7334,21.85742,35.18994,35.77088a103.80265,103.80265,0,0,1,6.77289,11.79638C88.77338,328.6094,81.69019,351.877,85.15417,373.5552a75.02082,75.02082,0,0,0,11.89332,29.85547H7.49988a7.50009,7.50009,0,0,0-6.791,10.68359l21.90625,46.73145a37.64336,37.64336,0,0,0,33.95459,21.585H455.43005a37.64412,37.64412,0,0,0,33.95459-21.584l21.90625-46.73243A7.50041,7.50041,0,0,0,510.82947,406.88723ZM237.34314,164.57229a19.493,19.493,0,0,1-7.16028,7.15039,55.1692,55.1692,0,0,0-11.288-4.38232,69.71888,69.71888,0,0,0-17.0586-2.023c-7.07519-.17432-10.36572-.395-14.21923-3.8086-4.79151-4.25-7.57618-10.9121-6.49707-13.37988.439-1.00244,3.29-1.71582,6.04687-2.40527,5.37549-1.34424,12.7373-3.186,17.23291-10.51758,4.80176-7.81494,2.68359-15.92578,1.13672-21.84814-.74951-2.86866-1.68164-6.43848-.94873-7.37842,1.64746-2.10645,8.72412-3.31739,14.00683-.77832,4.65723,2.23486,6.07813,6.95947,8.604,16.58154,2.2251,8.47607,4.98559,18.94092,12.34308,29.64526A19.99941,19.99941,0,0,1,237.34314,164.57229Zm5.87988,16.1803a33.90118,33.90118,0,0,0,9.89423-14.93c5.82,4.5017,12.26129,8.03247,19.56427,12.03442l2.106,1.15527c20.30078,11.15723,34.79736,12.61573,47.58691,13.90235,11.13769,1.12011,19.93457,2.00537,31.12842,9.0747,3.41845,2.16065,33.34668,21.94532,31.62011,51.02784a43.51617,43.51617,0,0,1-.61016,5.09106c-2.05225-1.30078-4.04078-2.55334-5.90546-3.72583l-1.0625-.66846c-22.5658-14.15429-59.87738-37.54809-108.93713-38.76635C262.38733,203.40164,254.26105,190.487,243.223,180.75259ZM72.76062,233.52688a19.48859,19.48859,0,0,1-6.33228,7.8512,55.92281,55.92281,0,0,0-11.71655-3.14026,69.6707,69.6707,0,0,0-17.17187-.19483c-7.05371.58057-10.34864.71045-14.54883-2.27929-5.21777-3.71387-8.69434-10.03858-7.88037-12.61182.3291-1.04053,3.08642-2.05273,5.75342-3.03174,5.20166-1.90918,12.32617-4.5249,16.02294-12.29883,3.93555-8.27685.96729-16.11181-1.20019-21.83251-1.04981-2.77149-2.35645-6.22071-1.72363-7.23829,1.41113-2.269,8.31494-4.22851,13.84131-2.26709,4.86914,1.72754,6.78418,6.27344,10.31787,15.57129,3.11371,8.19092,6.97064,18.30225,15.42511,28.16407A19.99977,19.99977,0,0,1,72.76062,233.52688Zm40.9079,86.52c5.52978,11.58643,11.78253,23.09155,22.21075,31.97119a7.49971,7.49971,0,1,0,9.72461-11.41992c-9.6582-8.22461-15.18359-20.07129-21.0332-32.61328-.90088-1.93164-1.81037-3.8794-2.74164-5.82837-.077-.17993-.16351-.356-.25488-.53027a134.42,134.42,0,0,0-9.74518-17.51538c-9.08081-13.36023-19.0965-26.30665-31.48322-35.14039a33.90441,33.90441,0,0,0,8.2323-15.8789c6.27777,3.86633,13.07178,6.69726,20.77533,9.90649l2.18653.91211c14.24023,5.95215,28.59228,6.96,42.47168,7.93506,14.0664.98828,27.35205,1.92139,39.83593,7.83789,23.37256,11.07715,34.54932,31.123,35.25684,46.0752a7.50008,7.50008,0,0,0,14.9834-.709c-.58447-12.33984-5.53955-24.6709-14.33057-35.65918a85.2092,85.2092,0,0,0-29.48584-23.26172c-.67285-.31884-1.34692-.61181-2.02087-.907a154.32262,154.32262,0,0,1,49.93493-14.4187,148.16786,148.16786,0,0,1,15.90186-.91309c.18359-.00048.36279-.001.5459-.001,46.69726,0,81.731,21.97363,104.98291,36.55908l1.00537.63184c4.28192,2.69274,9.13446,5.74511,14.18964,9.0476l.05151.03369c31.1477,20.33143,72.34082,51.32776,70.67584,85.70679-.67,13.84277-8.60266,28.15967-22.9505,41.543H115.93927c-8.763-9.90942-14.13727-20.75171-15.97308-32.22461C97.46307,355.52334,102.0705,338.36245,113.66852,320.0469ZM475.80261,454.46047a22.58533,22.58533,0,0,1-20.37256,12.9502H56.5697A22.58456,22.58456,0,0,1,36.19714,454.4595L19.29871,418.41067H435.46143c.01367,0,.02722.002.04089.002.0144,0,.02875-.002.04315-.002h57.15558Z"/></svg>