<svg xmlns="http://www.w3.org/2000/svg" data-name="Layer 1" viewBox="0 0 512 512"><path fill="#a6f3ba" d="M179.53793,227.7601c-.97055-13.60464,7.40257-20.613,2.0795-33.84658-6.07358-15.09945-21.83556-16.461-22.41705-27.61012-.5286-10.13456,12.36122-11.577,17.10886-24.731,7.50967-20.80676-17.36357-37.63874-9.93575-49.81964,6.2506-10.25037,33.37358-11.30318,48.52629-.12875,13.73453,10.12858,9.92275,24.59062,25.62521,33.40539,11.64818,6.53884,18.21016,1.08689,25.22509,7.72514,10.401,9.84254-1.82279,23.91194,6.72093,41.52215,8.19736,16.89631,23.89871,13.10976,33.8376,31.10632,9.81508,17.77237,2.53037,37.53132,1.402,40.48344-8.72555,22.82753-32.8,35.30229-53.68466,36.96624C215.8771,285.87212,181.36694,253.39815,179.53793,227.7601Z"/><path fill="#79ed97" d="M306.30865,205.38293c-9.9389-17.99652-25.64025-14.21-33.83764-31.10632-8.5437-17.61017,3.68011-31.67956-6.72089-41.52215-7.01495-6.63825-13.577-1.18628-25.2251-7.7251-15.70245-8.81476-11.89068-23.27686-25.62524-33.4054-11.59149-8.54822-30.17828-9.9339-41.07733-5.52777A38.75791,38.75791,0,0,1,184.89978,91.624c13.73456,10.12854,9.92279,24.59064,25.62524,33.4054,11.64814,6.53882,18.21015,1.08685,25.2251,7.7251,10.401,9.84259-1.82281,23.912,6.72089,41.52215,8.19739,16.89636,23.89874,13.1098,33.83764,31.10632,9.81507,17.7724,2.53034,37.53138,1.40192,40.48346-7.36127,19.25837-25.647,31.14826-43.72546,35.3946a65.35448,65.35448,0,0,0,20.04083,1.57165c20.88464-1.66394,44.95911-14.13873,53.68463-36.96625C308.839,242.91431,316.12372,223.15533,306.30865,205.38293Z"/><path fill="#a6f3ba" d="M59.91762,223.80051c-1.17987-18.6031,9.86436-28.24812,2.96623-46.31338C55.01314,156.87476,34.32417,155.122,33.63812,139.875c-.62365-13.85944,16.31313-15.92226,22.63917-33.94874,10.00634-28.5139-22.5398-51.36543-12.70094-68.07942,8.27952-14.065,43.90439-15.69384,63.725-.51368,17.96556,13.7594,12.85937,33.56862,33.41833,45.51715,15.25076,8.86349,23.9058,1.3601,33.07154,10.39179,13.59,13.39131-2.56,32.72195,8.537,56.75162,10.64713,23.05552,31.29229,17.76666,44.21872,42.31511,12.76541,24.24265,3.06178,51.32169,1.55945,55.36777-11.61708,31.28658-43.31811,48.51835-70.75517,50.93974C107.23352,303.03946,62.14112,258.85822,59.91762,223.80051Z"/><path fill="#79ed97" d="M226.54694,192.30884c-12.9264-24.54846-33.5716-19.25958-44.21869-42.31507-11.097-24.02972,5.053-43.36035-8.537-56.75164-9.16577-9.03168-17.8208-1.52832-33.07159-10.39179-20.5589-11.94855-15.45276-31.75775-33.41828-45.51715-15.973-12.23334-42.2005-13.54376-56.11822-6.233a47.55719,47.55719,0,0,1,11.11822,6.233c17.96552,13.7594,12.85938,33.5686,33.41828,45.51715,15.25079,8.86347,23.90582,1.36011,33.07159,10.39179,13.59,13.39129-2.56006,32.72192,8.537,56.75164,10.64709,23.05549,31.29229,17.76661,44.21869,42.31507,12.76544,24.24267,3.06182,51.32171,1.55944,55.3678-9.4823,25.53735-32.34552,41.70611-55.34881,48.10467a82.98113,82.98113,0,0,0,29.59369,2.83508c27.437-2.42144,59.13806-19.65319,70.75512-50.93975C229.60876,243.63055,239.31238,216.55151,226.54694,192.30884Z"/><path fill="#a6f3ba" d="M465.22337,257.17155c-1.69563-18.5632-14.092-26.39465-10.0547-45.306,4.60652-21.57772,24.77968-26.49193,23.11233-41.663-1.51559-13.79044-18.5681-13.22355-27.59164-30.06245-14.27317-26.63543,14.3707-54.22115,2.078-69.22285-10.34442-12.62411-45.79588-8.75385-63.04566,9.2944-15.63533,16.359-7.54292,35.14712-26.01933,50.11576-13.70591,11.10384-23.41209,5.021-31.07954,15.35508-11.36851,15.32233,7.56272,31.93876.29395,57.38937-6.97411,24.41886-28.18709,22.36851-37.18373,48.61312-8.88457,25.91768,4.86879,51.18188,6.9756,54.94872,16.29122,29.12736,50.26553,41.27791,77.74852,39.45021C430.65883,342.74548,468.4188,292.15406,465.22337,257.17155Z"/><path fill="#79ed97" d="M455.1687,211.86554c4.60651-21.5777,24.77966-26.49188,23.11231-41.663-1.51563-13.79041-18.56812-13.22352-27.59162-30.06244C436.4162,113.5047,465.06006,85.919,452.7674,70.9173c-7.67493-9.36627-29.16663-9.64459-46.795-1.79761a14.39325,14.39325,0,0,1,1.795,1.79761c12.29266,15.00171-16.3512,42.5874-2.078,69.22284,9.0235,16.83892,26.076,16.272,27.59162,30.06244,1.66735,15.17108-18.5058,20.08526-23.11231,41.663-4.03735,18.91138,8.359,26.7428,10.05469,45.306,2.83307,31.01568-26.52979,74.29541-68.2121,86.04a89.03831,89.03831,0,0,0,28.44592,2.87243c50.2016-3.3385,87.96161-53.92993,84.76618-88.91247C463.52771,238.60834,451.13135,230.77692,455.1687,211.86554Z"/><circle cx="314.971" cy="254.453" r="44.471" fill="#f66"/><path fill="#ff4e4e" d="M314.97125,209.98145a44.38062,44.38062,0,0,0-15,2.60009,44.47972,44.47972,0,0,1,0,83.74225,44.4737,44.4737,0,1,0,15-86.34234Z"/><circle cx="239.971" cy="254.453" r="44.471" fill="#f66"/><path fill="#ff4e4e" d="M239.97125,209.98145a44.38062,44.38062,0,0,0-15,2.60009,44.47972,44.47972,0,0,1,0,83.74225,44.4737,44.4737,0,1,0,15-86.34234Z"/><path fill="#676e87" d="M138.55331,418.16522H373.44669a0,0,0,0,1,0,0v41.78656A44.54821,44.54821,0,0,1,328.89847,504.5H183.10153a44.54821,44.54821,0,0,1-44.54821-44.54821V418.16522A0,0,0,0,1,138.55331,418.16522Z"/><path fill="#595f74" d="M328.44672,418.16522v41.78656A44.54826,44.54826,0,0,1,283.8985,504.5h45a44.54826,44.54826,0,0,0,44.54822-44.54822V418.16522Z"/><path fill="#595f74" d="M397.25,258.67H504.5A181.43136,181.43136,0,0,1,323.06,440.11H188.94A181.442,181.442,0,0,1,7.5,258.67H397.25Z"/><path fill="#4a4f60" d="M459.5,258.67v.00013A181.44453,181.44453,0,0,1,278.05548,440.11475h45A181.44453,181.44453,0,0,0,504.5,258.67017V258.67Z"/><path fill="#272a33" d="M504.49988,251.16946H471.90454a75.4083,75.4083,0,0,0-5.60535-16.34326c-3.26953-7.42578-5.63183-12.79151-3.79492-21.38965,1.86084-8.71143,7.00781-14.252,11.98584-19.60986,5.84033-6.28663,12.45947-13.41211,11.24512-24.44336-1.16895-10.67774-8.50879-15.5127-14.98438-19.77881-5.15185-3.39405-10.01806-6.6001-13.4497-13.00635-6.14551-11.47217-2.17969-23.80322,1.65527-35.728,3.88721-12.08593,7.90674-24.584-.38574-34.70459-4.98779-6.08691-13.80225-9.67041-24.81885-10.09033-15.05469-.57226-36.18066,5.064-49.45459,18.95313-8.68506,9.09033-11.17334,18.76171-13.36914,27.29443-2.27,8.82275-4.063,15.791-11.94922,22.17969-5.36914,4.34961-9.78662,5.35254-14.46338,6.41406-5.79248,1.31494-12.3584,2.80518-17.918,10.29346-7.96777,10.73535-5.03222,22.00732-2.44189,31.95214,2.229,8.55909,4.53418,17.40918,1.55273,27.8462-.24224.84777-.51379,1.65081-.79992,2.43542a52.00085,52.00085,0,0,0-9.93836-.96423c-.57818,0-1.15008.0354-1.725.0542a7.55138,7.55138,0,0,0-.37067-.78125c-6.03076-10.915-14.09082-15.36035-20.56738-18.93164-5.82959-3.21485-10.04151-5.5376-13.08838-11.814-3.23828-6.67773-2.63672-12.72851-2-19.13476.75244-7.56983,1.689-16.99073-6.31494-24.57129-5.51465-5.21582-11.167-5.61817-15.7085-5.94141-3.62012-.25732-6.74658-.48-11.00195-2.86914-6.18848-3.47607-8.16114-7.8374-10.89112-13.874-2.78125-6.14844-5.93359-13.11768-13.95214-19.03369C204.74615,74.818,179.99963,73.19216,166.743,81.28408a52.45848,52.45848,0,0,0-6.97412-.80505c-4.78516-.33057-9.30469-.64209-15.27978-4.11377-8.771-5.09766-11.61329-11.70508-15.21192-20.0708-3.48291-8.0957-7.43017-17.272-17.417-24.919C96.60779,19.69387,74.8656,17.37405,60.08,20.25833,49.2616,22.36868,41.10632,27.26516,37.11707,34.044c-6.63916,11.2749-.74561,23.00733,4.9541,34.353,5.623,11.19385,11.4375,22.769,7.13232,35.04736-2.40771,6.854-6.72217,10.771-11.29,14.918-5.74365,5.21436-12.2539,11.124-11.76611,21.85107.49463,11.08838,8.12939,17.10694,14.86572,22.417,5.74365,4.52734,11.68213,9.209,14.86084,17.53613,3.13818,8.21387,1.6294,13.88135-.458,21.72559-1.666,6.2583-3.55371,13.352-2.98095,22.3833a66.7188,66.7188,0,0,0,8.14239,26.894H7.49988a7.50006,7.50006,0,0,0-7.5,7.5c0,83.99542,55.10052,155.35254,131.0498,179.85632v21.42395A52.10907,52.10907,0,0,0,183.1,511.99954h145.7998a52.10907,52.10907,0,0,0,52.05029-52.04981V438.60635A189.19132,189.19132,0,0,0,511.99988,258.66946,7.50006,7.50006,0,0,0,504.49988,251.16946ZM338.64148,150.1509c2.14062-2.8833,4.03418-3.43505,9.19434-4.60644,5.27636-1.19775,12.50195-2.83789,20.58544-9.38721,11.73584-9.50683,14.5503-20.44531,17.0337-30.09619,1.98974-7.7334,3.70849-14.41162,9.687-20.66992,8.56592-8.96289,24.19922-14.85645,38.03857-14.32666,6.47119.24658,11.62549,1.96973,13.78809,4.6084,2.90381,3.54394,1.07129,10.14843-2.29151,20.605-4.34423,13.50732-9.75048,30.31738-.59863,47.40283,5.22656,9.7583,12.54248,14.57764,18.4209,18.45019,5.86963,3.8667,7.95654,5.52,8.32519,8.88965.42188,3.83252-1.79,6.63965-7.32421,12.59668-5.76514,6.20606-12.93995,13.9292-15.665,26.68555-2.8501,13.33936,1.18017,22.49219,4.73584,30.56787a75.41125,75.41125,0,0,1,3.93939,10.29883H399.66315q1.455-4.6074,2.84851-9.22943l25.00287-14.05231a7.5,7.5,0,0,0-7.34961-13.07617l-11.87867,6.67615c4.958-18.71723,9.1399-37.77723,12.42365-56.82819a7.4992,7.4992,0,1,0-14.78-2.55c-2.22888,12.93219-4.88788,25.86762-7.921,38.694l-7.37128-17.907a7.50018,7.50018,0,1,0-13.87109,5.71L391.773,225.06173c-.309,1.11194-.60852,2.22882-.92316,3.33777q-.90884,3.20307-1.8587,6.39667c-.01123.03863-.023.077-.03363.11578q-2.40948,8.155-5.04529,16.25751H366.83154a52.04074,52.04074,0,0,0-27.775-42.74927c.38464-1.06738.74988-2.15454,1.07465-3.29077,4.10693-14.37549,1.02-26.22607-1.46-35.74805C336.22986,160.00784,335.12,154.89553,338.64148,150.1509Zm-23.67139,67.32862a37.01454,37.01454,0,0,1,36.81623,33.68994H291.83105a51.79307,51.79307,0,0,0-5.462-20.137A36.80768,36.80768,0,0,1,314.97009,217.47952ZM210.44714,97.65481c4.86719,3.59082,6.77393,7.80664,9.188,13.14356,2.999,6.63037,6.73145,14.88232,17.21338,20.771a37.545,37.545,0,0,0,17.28174,4.75244c3.76172.26758,4.91553.41016,6.4624,1.87305,2.44287,2.314,2.41162,5.02783,1.69922,12.19385-.73828,7.42822-1.65723,16.67334,3.43115,27.166,5.12842,10.56348,12.67871,14.72754,19.34033,18.40088,4.71161,2.59839,8.89747,4.91022,12.41919,9.55573a51.62929,51.62929,0,0,0-20.01233,12.95538,51.72407,51.72407,0,0,0-37.50012-15.98718c-.524,0-1.04229.02417-1.56262.03967a62.30248,62.30248,0,0,0-5.222-13.70471c-7.50146-14.24317-17.30224-19.83887-25.94921-24.77539-7.70655-4.3999-13.79346-7.875-18.09766-17.19434-4.55273-9.85693-3.63867-18.95556-2.75439-27.75537.89746-8.93054,1.89849-18.90167-4.20948-27.53357C190.6521,90.27932,202.53558,91.82333,210.44714,97.65481Zm66.33118,153.51465H203.15338a36.95458,36.95458,0,0,1,73.62494,0ZM50.29919,150.85012c-6.37988-5.02881-8.99511-7.45947-9.167-11.31152-.15381-3.38525,1.65479-5.3418,6.86377-10.07031,5.21-4.73,11.69385-10.61621,15.36133-21.05713C69.77039,90.12161,61.84363,74.34231,55.475,61.6636c-4.93116-9.81543-7.75684-16.06055-5.43116-20.01025,1.7295-2.939,6.55469-5.4336,12.90821-6.67286,13.583-2.64843,29.94482.76465,39.78808,8.30372,6.87647,5.26562,9.60205,11.60156,12.75781,18.938,3.937,9.15137,8.39893,19.52393,21.45459,27.11231,8.99561,5.22656,16.38672,5.73633,21.7837,6.10888,5.27783.36377,7.23291.61817,9.79,3.13868,4.21093,4.14892,3.90136,9.37109,2.9331,19.00781-.98389,9.78906-2.208,21.97168,4.06152,35.54443,6.31641,13.67676,15.85889,19.12451,24.27832,23.93116,7.86133,4.48828,14.65039,8.36425,20.11377,18.73779a47.03037,47.03037,0,0,1,3.67963,9.33551,52.07156,52.07156,0,0,0-35.47961,46.0307H164.33551q-6.65561-10.69363-12.84515-21.65241l9.24633-38.43646a7.50007,7.50007,0,0,0-14.584-3.50879l-5.33325,22.17q-7.94329-15.41932-14.98694-31.3526l8.35779-28.98243a7.50019,7.50019,0,0,0-14.41309-4.15625l-3.18237,11.03559q-6.912-17.53143-12.67493-35.43659a7.4998,7.4998,0,1,0-14.28,4.59c6.12683,19.05115,13.24585,37.86566,21.26917,56.26642q.08258.20691.17712.40808c.1767.40436.34949.81049.527,1.21448l-14.70514-5.49744a7.49984,7.49984,0,1,0-5.25293,14.0498l28.88086,10.797q3.5484,7.35471,7.28388,14.60163,2.497,4.83581,5.09619,9.63061l-17.79169-6.65131a7.49984,7.49984,0,1,0-5.25293,14.04981l34.53015,12.90893c.78095,1.32081,1.57178,2.63593,2.36115,3.95191H78.0929c-6.36231-9.4054-10.13685-19.18164-10.68824-27.84473-.41748-6.5874,1.00244-11.92431,2.50635-17.5747,2.27-8.52881,4.84277-18.19532-.02441-30.93457C65.23279,162.6221,56.95251,156.09475,50.29919,150.85012ZM365.95007,459.94973a37.092,37.092,0,0,1-37.05029,37.04981H183.1a37.092,37.092,0,0,1-37.0503-37.04981V442.69607a188.82049,188.82049,0,0,0,42.89014,4.91333H323.05994a190.391,190.391,0,0,0,42.89013-4.87292Zm80.10743-78.28418a173.07267,173.07267,0,0,1-74.17188,44.02,7.42408,7.42408,0,0,0-.94818.2746,174.70371,174.70371,0,0,1-47.8775,6.64923H188.93982c-93.39941,0-169.84131-73.99268-173.78027-166.43994h59.0476l.00855.00049.00628-.00049H195.681l.01031.00049.01044-.00049h88.595c.00739-.00006.01477.00006.02216,0h74.91968l.01037.00049.01032-.00049H496.84216A172.70463,172.70463,0,0,1,446.0575,381.66555Z"/></svg>